<svg width="54" height="38" viewBox="0 0 54 38" fill="none" xmlns="http://www.w3.org/2000/svg">
<g clip-path="url(#clip0_3_2487)">
<path d="M52.1405 6.04543C51.5243 3.72052 49.7468 1.89997 47.4682 1.27815C44.4075 0.0725181 14.7619 -0.518209 6.16211 1.3127C3.88351 1.94143 2.09922 3.75506 1.48979 6.07997C0.108401 12.2636 0.00344339 25.6327 1.52364 31.9545C2.13985 34.2794 3.91736 36.1 6.19597 36.7218C12.2565 38.1451 41.0691 38.3454 47.5021 36.7218C49.7807 36.0931 51.5649 34.2794 52.1744 31.9545C53.6472 25.2182 53.7521 12.6782 52.1405 6.04543Z" fill="#FF0000" style="fill:#FF0000;fill:color(display-p3 1.0000 0.0000 0.0000);fill-opacity:1;"/>
<path d="M35.5504 19L21.7365 10.9163V27.0836L35.5504 19Z" fill="white" style="fill:white;fill-opacity:1;"/>
<path d="M35.5502 19L21.7363 10.9164V27.0837L35.5502 19Z" fill="white" style="fill:white;fill-opacity:1;"/>
</g>
<defs>
<clipPath id="clip0_3_2487">
<rect width="53.8333" height="38" fill="white" style="fill:white;fill-opacity:1;"/>
</clipPath>
</defs>
</svg>
